<?xml version="1.0" encoding="UTF-8" ?>
<!DOCTYPE svg PUBLIC "-//W3C//DTD SVG 1.1//EN" "http://www.w3.org/Graphics/SVG/1.1/DTD/svg11.dtd">
<svg width="512pt" height="512pt" viewBox="0 0 512 512" version="1.1" xmlns="http://www.w3.org/2000/svg">
<g id="#2e52b2ff">
<path fill="#2e52b2" opacity="1.00" d=" M 0.00 85.04 C 85.27 85.14 170.55 84.85 255.82 85.19 C 256.24 99.45 255.88 113.73 256.00 127.99 C 256.00 142.22 256.00 156.44 256.00 170.66 C 256.00 184.88 256.00 199.10 256.00 213.33 C 256.00 227.55 256.00 241.77 256.00 256.00 C 256.00 260.37 256.01 264.74 255.99 269.12 C 170.66 269.14 85.33 269.12 0.00 269.13 L 0.00 85.04 M 99.82 114.87 C 98.44 119.08 97.06 123.28 95.74 127.50 C 91.29 127.56 86.85 127.52 82.40 127.54 C 85.98 130.13 89.55 132.75 93.14 135.34 C 91.82 139.59 90.38 143.81 89.04 148.06 C 92.65 145.47 96.21 142.82 99.83 140.23 C 103.45 142.77 106.99 145.43 110.58 148.01 C 109.22 143.83 107.92 139.63 106.47 135.49 C 110.01 132.77 113.67 130.21 117.24 127.54 C 112.86 127.56 108.48 127.45 104.11 127.61 C 102.43 123.45 101.30 119.10 99.82 114.87 M 151.97 127.57 C 147.57 127.50 143.17 127.55 138.77 127.52 C 142.35 130.16 145.98 132.74 149.53 135.41 C 148.11 139.61 146.76 143.83 145.41 148.06 C 149.01 145.46 152.58 142.84 156.17 140.24 C 159.82 142.76 163.36 145.42 166.94 148.03 C 165.62 143.79 164.19 139.59 162.86 135.35 C 166.48 132.80 170.04 130.17 173.60 127.54 C 169.16 127.51 164.72 127.56 160.28 127.51 C 158.93 123.30 157.57 119.10 156.19 114.90 C 154.73 119.11 153.51 123.39 151.97 127.57 M 43.43 114.87 C 42.09 119.10 40.71 123.31 39.33 127.53 C 34.90 127.53 30.47 127.54 26.04 127.51 C 29.62 130.13 33.19 132.76 36.79 135.34 C 35.44 139.59 34.01 143.82 32.68 148.08 C 36.27 145.45 39.87 142.83 43.48 140.23 C 47.09 142.78 50.63 145.44 54.23 148.02 C 52.88 143.80 51.48 139.59 50.13 135.37 C 53.74 132.79 57.31 130.16 60.89 127.54 C 56.46 127.52 52.03 127.53 47.60 127.54 C 46.17 123.33 44.88 119.07 43.43 114.87 M 208.41 127.54 C 203.98 127.52 199.55 127.55 195.12 127.51 C 198.70 130.12 202.26 132.75 205.87 135.33 C 204.54 139.60 203.10 143.83 201.76 148.09 C 205.34 145.46 208.93 142.85 212.52 140.23 C 216.18 142.74 219.70 145.44 223.31 148.01 C 221.96 143.80 220.57 139.59 219.22 135.39 C 222.81 132.79 226.41 130.18 229.97 127.54 C 225.54 127.52 221.11 127.53 216.68 127.53 C 215.29 123.34 213.93 119.14 212.60 114.93 C 211.09 119.09 209.82 123.34 208.41 127.54 M 43.46 160.66 C 42.06 164.88 40.72 169.12 39.30 173.34 C 34.89 173.34 30.47 173.34 26.05 173.32 C 29.61 175.94 33.23 178.49 36.79 181.12 C 35.44 185.34 34.04 189.55 32.70 193.77 C 36.31 191.24 39.88 188.65 43.40 185.99 C 47.07 188.52 50.64 191.19 54.24 193.81 C 52.87 189.60 51.51 185.38 50.13 181.17 C 53.67 178.52 57.31 176.01 60.84 173.35 C 56.43 173.32 52.02 173.33 47.61 173.34 C 46.19 169.13 44.87 164.88 43.46 160.66 M 152.04 173.33 C 147.62 173.34 143.21 173.34 138.79 173.32 C 142.34 175.95 145.94 178.50 149.51 181.11 C 148.17 185.34 146.76 189.55 145.42 193.78 C 149.12 191.27 152.60 188.44 156.36 186.01 C 159.82 188.69 163.42 191.21 166.95 193.80 C 165.61 189.58 164.21 185.38 162.86 181.17 C 166.40 178.52 170.05 176.01 173.57 173.34 C 169.15 173.32 164.72 173.36 160.30 173.32 C 158.93 169.10 157.58 164.89 156.19 160.68 C 154.75 164.88 153.46 169.12 152.04 173.33 M 208.39 173.34 C 203.97 173.33 199.56 173.34 195.15 173.33 C 198.70 175.96 202.34 178.48 205.87 181.14 C 204.51 185.36 203.13 189.57 201.77 193.79 C 205.51 191.40 208.86 188.24 212.73 186.17 C 216.34 188.58 219.74 191.30 223.32 193.78 C 221.95 189.57 220.57 185.36 219.22 181.15 C 222.77 178.52 226.40 176.00 229.94 173.35 C 225.53 173.32 221.11 173.34 216.70 173.34 C 215.28 169.13 213.94 164.89 212.56 160.67 C 211.12 164.88 209.81 169.13 208.39 173.34 M 99.79 160.78 C 98.40 164.95 97.05 169.13 95.71 173.31 C 91.33 173.37 86.95 173.31 82.57 173.34 C 85.99 176.07 89.66 178.48 93.14 181.14 C 91.79 185.36 90.40 189.58 89.04 193.80 C 92.69 191.25 96.26 188.58 99.87 185.97 C 103.42 188.61 107.01 191.19 110.59 193.79 C 109.24 189.57 107.84 185.37 106.50 181.16 C 110.05 178.53 113.67 176.00 117.21 173.35 C 112.79 173.32 108.37 173.35 103.96 173.33 C 102.53 169.16 101.32 164.92 99.79 160.78 M 43.39 206.69 C 41.98 210.80 40.72 214.96 39.32 219.07 C 34.88 219.07 30.44 219.07 26.01 219.05 C 29.61 221.65 33.20 224.28 36.78 226.91 C 35.44 231.14 34.02 235.33 32.70 239.56 C 36.30 236.99 39.87 234.38 43.46 231.79 C 47.09 234.32 50.64 236.96 54.22 239.56 C 52.88 235.34 51.48 231.13 50.13 226.91 C 53.75 224.33 57.32 221.69 60.90 219.07 C 56.43 219.02 51.96 219.17 47.49 218.97 C 46.17 214.86 45.03 210.68 43.39 206.69 M 99.81 206.45 C 98.43 210.64 97.07 214.85 95.71 219.05 C 91.27 219.08 86.82 219.08 82.37 219.04 C 85.97 221.65 89.56 224.27 93.14 226.92 C 91.80 231.14 90.38 235.34 89.06 239.57 C 92.66 236.99 96.25 234.38 99.84 231.78 C 103.44 234.35 107.02 236.95 110.58 239.57 C 109.25 235.34 107.84 231.14 106.50 226.92 C 110.09 224.33 113.67 221.71 117.26 219.10 C 112.82 219.04 108.38 219.09 103.94 219.06 C 102.55 214.86 101.23 210.64 99.81 206.45 M 152.06 219.06 C 147.61 219.08 143.17 219.06 138.72 219.06 C 142.34 221.65 145.93 224.27 149.50 226.91 C 148.16 231.14 146.75 235.34 145.42 239.57 C 149.02 236.99 152.59 234.38 156.18 231.79 C 159.82 234.31 163.37 236.96 166.95 239.57 C 165.61 235.34 164.19 231.14 162.87 226.91 C 166.47 224.32 170.05 221.70 173.62 219.07 C 169.18 219.06 164.74 219.09 160.29 219.05 C 158.92 214.85 157.57 210.64 156.19 206.44 C 154.77 210.64 153.45 214.86 152.06 219.06 M 212.51 206.44 C 211.20 210.63 209.77 214.77 208.51 218.97 C 204.04 219.17 199.56 219.03 195.09 219.06 C 198.70 221.65 202.28 224.28 205.87 226.91 C 204.53 231.13 203.11 235.33 201.79 239.55 C 205.40 237.00 208.96 234.37 212.56 231.78 C 216.17 234.34 219.73 236.96 223.31 239.56 C 221.97 235.33 220.56 231.13 219.21 226.91 C 222.83 224.33 226.41 221.70 229.99 219.07 C 225.55 219.07 221.12 219.07 216.69 219.07 C 215.25 214.87 213.98 210.62 212.51 206.44 Z" />
</g>
<g id="#f0f0f0ff">
<path fill="#f0f0f0" opacity="1.00" d=" M 255.82 85.19 C 257.19 85.27 258.57 85.32 259.95 85.34 C 343.97 85.33 427.98 85.34 512.00 85.33 L 512.00 127.99 C 426.67 127.99 341.33 127.99 256.00 127.99 C 255.88 113.73 256.24 99.45 255.82 85.19 Z" />
<path fill="#f0f0f0" opacity="1.00" d=" M 99.82 114.87 C 101.30 119.10 102.43 123.45 104.11 127.61 C 108.48 127.45 112.86 127.56 117.24 127.54 C 113.67 130.21 110.01 132.77 106.47 135.49 C 107.92 139.63 109.22 143.83 110.58 148.01 C 106.99 145.43 103.45 142.77 99.83 140.23 C 96.21 142.82 92.65 145.47 89.04 148.06 C 90.38 143.81 91.82 139.59 93.14 135.34 C 89.55 132.75 85.98 130.13 82.40 127.54 C 86.85 127.52 91.29 127.56 95.74 127.50 C 97.06 123.28 98.44 119.08 99.82 114.87 Z" />
<path fill="#f0f0f0" opacity="1.00" d=" M 151.97 127.57 C 153.51 123.39 154.73 119.11 156.19 114.90 C 157.57 119.10 158.93 123.30 160.28 127.51 C 164.72 127.56 169.16 127.51 173.60 127.54 C 170.04 130.17 166.48 132.80 162.86 135.35 C 164.19 139.59 165.62 143.79 166.94 148.03 C 163.36 145.42 159.82 142.76 156.17 140.24 C 152.58 142.84 149.01 145.46 145.41 148.06 C 146.76 143.83 148.11 139.61 149.53 135.41 C 145.98 132.74 142.35 130.16 138.77 127.52 C 143.17 127.55 147.57 127.50 151.97 127.57 Z" />
<path fill="#f0f0f0" opacity="1.00" d=" M 43.43 114.87 C 44.88 119.07 46.17 123.33 47.60 127.54 C 52.03 127.53 56.46 127.52 60.89 127.54 C 57.31 130.16 53.74 132.79 50.13 135.37 C 51.48 139.59 52.88 143.80 54.23 148.02 C 50.63 145.44 47.09 142.78 43.48 140.23 C 39.87 142.83 36.27 145.45 32.68 148.08 C 34.01 143.82 35.44 139.59 36.79 135.34 C 33.19 132.76 29.62 130.13 26.04 127.51 C 30.47 127.54 34.90 127.53 39.33 127.53 C 40.71 123.31 42.09 119.10 43.43 114.87 Z" />
<path fill="#f0f0f0" opacity="1.00" d=" M 208.41 127.54 C 209.82 123.34 211.09 119.09 212.60 114.93 C 213.93 119.14 215.29 123.34 216.68 127.53 C 221.11 127.53 225.54 127.52 229.97 127.54 C 226.41 130.18 222.81 132.79 219.22 135.39 C 220.57 139.59 221.96 143.80 223.31 148.01 C 219.70 145.44 216.18 142.74 212.52 140.23 C 208.93 142.85 205.34 145.46 201.76 148.09 C 203.10 143.83 204.54 139.60 205.87 135.33 C 202.26 132.75 198.70 130.12 195.12 127.51 C 199.55 127.55 203.98 127.52 208.41 127.54 Z" />
<path fill="#f0f0f0" opacity="1.00" d=" M 43.46 160.66 C 44.87 164.88 46.19 169.13 47.61 173.34 C 52.02 173.33 56.43 173.32 60.84 173.35 C 57.31 176.01 53.67 178.52 50.13 181.17 C 51.51 185.38 52.87 189.60 54.24 193.81 C 50.64 191.19 47.07 188.52 43.40 185.99 C 39.88 188.65 36.31 191.24 32.70 193.77 C 34.04 189.55 35.44 185.34 36.79 181.12 C 33.23 178.49 29.61 175.94 26.05 173.32 C 30.47 173.34 34.89 173.34 39.30 173.34 C 40.72 169.12 42.06 164.88 43.46 160.66 Z" />
<path fill="#f0f0f0" opacity="1.00" d=" M 152.04 173.33 C 153.46 169.12 154.75 164.88 156.19 160.68 C 157.58 164.89 158.93 169.10 160.30 173.32 C 164.72 173.36 169.15 173.32 173.57 173.34 C 170.05 176.01 166.40 178.52 162.86 181.17 C 164.21 185.38 165.61 189.58 166.95 193.80 C 163.42 191.21 159.82 188.69 156.36 186.01 C 152.60 188.44 149.12 191.27 145.42 193.78 C 146.76 189.55 148.17 185.34 149.51 181.11 C 145.94 178.50 142.34 175.95 138.79 173.32 C 143.21 173.34 147.62 173.34 152.04 173.33 Z" />
<path fill="#f0f0f0" opacity="1.00" d=" M 208.39 173.34 C 209.81 169.13 211.12 164.88 212.56 160.67 C 213.94 164.89 215.28 169.13 216.70 173.34 C 221.11 173.34 225.53 173.32 229.94 173.35 C 226.40 176.00 222.77 178.52 219.22 181.15 C 220.57 185.36 221.95 189.57 223.32 193.78 C 219.74 191.30 216.34 188.58 212.73 186.17 C 208.86 188.24 205.51 191.40 201.77 193.79 C 203.13 189.57 204.51 185.36 205.87 181.14 C 202.34 178.48 198.70 175.96 195.15 173.33 C 199.56 173.34 203.97 173.33 208.39 173.34 Z" />
<path fill="#f0f0f0" opacity="1.00" d=" M 99.79 160.78 C 101.32 164.92 102.53 169.16 103.96 173.33 C 108.37 173.35 112.79 173.32 117.21 173.35 C 113.67 176.00 110.05 178.53 106.50 181.16 C 107.84 185.37 109.24 189.57 110.59 193.79 C 107.01 191.19 103.42 188.61 99.87 185.97 C 96.26 188.58 92.69 191.25 89.04 193.80 C 90.40 189.58 91.79 185.36 93.14 181.14 C 89.66 178.48 85.99 176.07 82.57 173.34 C 86.95 173.31 91.33 173.37 95.71 173.31 C 97.05 169.13 98.40 164.95 99.79 160.78 Z" />
<path fill="#f0f0f0" opacity="1.00" d=" M 256.00 170.66 C 341.33 170.65 426.67 170.66 512.00 170.66 L 512.00 213.33 C 426.67 213.33 341.33 213.33 256.00 213.33 C 256.00 199.10 256.00 184.88 256.00 170.66 Z" />
<path fill="#f0f0f0" opacity="1.00" d=" M 43.39 206.69 C 45.03 210.68 46.17 214.86 47.49 218.97 C 51.96 219.17 56.43 219.02 60.90 219.07 C 57.32 221.69 53.75 224.33 50.13 226.91 C 51.48 231.13 52.88 235.34 54.22 239.56 C 50.64 236.96 47.09 234.32 43.46 231.79 C 39.87 234.38 36.30 236.99 32.70 239.56 C 34.02 235.33 35.44 231.14 36.78 226.91 C 33.20 224.28 29.61 221.65 26.01 219.05 C 30.44 219.07 34.88 219.07 39.32 219.07 C 40.72 214.96 41.98 210.80 43.39 206.69 Z" />
<path fill="#f0f0f0" opacity="1.00" d=" M 99.81 206.45 C 101.23 210.64 102.55 214.86 103.94 219.06 C 108.38 219.09 112.82 219.04 117.26 219.10 C 113.67 221.71 110.09 224.33 106.50 226.92 C 107.84 231.14 109.25 235.34 110.58 239.57 C 107.02 236.95 103.44 234.35 99.84 231.78 C 96.25 234.38 92.66 236.99 89.06 239.57 C 90.38 235.34 91.80 231.14 93.14 226.92 C 89.56 224.27 85.97 221.65 82.37 219.04 C 86.82 219.08 91.27 219.08 95.71 219.05 C 97.07 214.85 98.43 210.64 99.81 206.45 Z" />
<path fill="#f0f0f0" opacity="1.00" d=" M 152.06 219.06 C 153.45 214.86 154.77 210.64 156.19 206.44 C 157.57 210.64 158.92 214.85 160.29 219.05 C 164.74 219.09 169.18 219.06 173.62 219.07 C 170.05 221.70 166.47 224.32 162.87 226.91 C 164.19 231.14 165.61 235.34 166.95 239.57 C 163.37 236.96 159.82 234.31 156.18 231.79 C 152.59 234.38 149.02 236.99 145.42 239.57 C 146.75 235.34 148.16 231.14 149.50 226.91 C 145.93 224.27 142.34 221.65 138.72 219.06 C 143.17 219.06 147.61 219.08 152.06 219.06 Z" />
<path fill="#f0f0f0" opacity="1.00" d=" M 212.51 206.44 C 213.98 210.62 215.25 214.87 216.69 219.07 C 221.12 219.07 225.55 219.07 229.99 219.07 C 226.41 221.70 222.83 224.33 219.21 226.91 C 220.56 231.13 221.97 235.33 223.31 239.56 C 219.73 236.96 216.17 234.34 212.56 231.78 C 208.96 234.37 205.40 237.00 201.79 239.55 C 203.11 235.33 204.53 231.13 205.87 226.91 C 202.28 224.28 198.70 221.65 195.09 219.06 C 199.56 219.03 204.04 219.17 208.51 218.97 C 209.77 214.77 211.20 210.63 212.51 206.44 Z" />
<path fill="#f0f0f0" opacity="1.00" d=" M 256.00 256.00 C 341.33 256.00 426.67 256.00 512.00 256.00 L 512.00 298.65 C 341.33 298.65 170.67 298.65 0.00 298.65 L 0.00 269.13 C 85.33 269.12 170.66 269.14 255.99 269.12 C 256.01 264.74 256.00 260.37 256.00 256.00 Z" />
<path fill="#f0f0f0" opacity="1.00" d=" M 0.00 341.32 C 170.67 341.32 341.33 341.32 512.00 341.32 L 512.00 383.99 C 341.33 383.99 170.67 383.99 0.00 383.99 L 0.00 341.32 Z" />
</g>
<g id="#d80027ff">
<path fill="#d80027" opacity="1.00" d=" M 256.00 127.99 C 341.33 127.99 426.67 127.99 512.00 127.99 L 512.00 170.66 C 426.67 170.66 341.33 170.65 256.00 170.66 C 256.00 156.44 256.00 142.22 256.00 127.99 Z" />
<path fill="#d80027" opacity="1.00" d=" M 256.00 213.33 C 341.33 213.33 426.67 213.33 512.00 213.33 L 512.00 256.00 C 426.67 256.00 341.33 256.00 256.00 256.00 C 256.00 241.77 256.00 227.55 256.00 213.33 Z" />
<path fill="#d80027" opacity="1.00" d=" M 0.00 298.65 C 170.67 298.65 341.33 298.65 512.00 298.65 L 512.00 341.32 C 341.33 341.32 170.67 341.32 0.00 341.32 L 0.00 298.65 Z" />
<path fill="#d80027" opacity="1.00" d=" M 0.00 383.99 C 170.67 383.99 341.33 383.99 512.00 383.99 L 512.00 426.91 C 341.33 426.91 170.67 426.91 0.00 426.91 L 0.00 383.99 Z" />
</g>
</svg>
