<?xml version="1.0" encoding="UTF-8" standalone="no"?>
<!DOCTYPE svg PUBLIC "-//W3C//DTD SVG 1.1//EN" "http://www.w3.org/Graphics/SVG/1.1/DTD/svg11.dtd">
<svg width="100%" height="100%" viewBox="0 0 451 64" version="1.1" xmlns="http://www.w3.org/2000/svg" xmlns:xlink="http://www.w3.org/1999/xlink" xml:space="preserve" xmlns:serif="http://www.serif.com/" style="fill-rule:evenodd;clip-rule:evenodd;stroke-linejoin:round;stroke-miterlimit:2;">
    <g transform="matrix(1,0,0,1,-2685.68,-380.369)">
        <g transform="matrix(1.41864,0,0,1,0,0)">
            <g transform="matrix(1.93688,0,0,2.74774,-3216.06,-3974.47)">
                <path d="M2778,1591.12C2775.93,1590.01 2773.65,1589.29 2771.19,1588.9C2768.22,1588.45 2764.98,1588.54 2761.48,1589.09C2760.34,1589.22 2759.32,1588.4 2759.19,1587.26C2759.06,1586.13 2759.88,1585.1 2761.02,1584.98C2764.97,1584.73 2768.57,1584.97 2771.82,1585.79C2775.04,1586.6 2777.91,1587.91 2780.41,1589.81C2784.82,1587.61 2790.06,1585.99 2796.22,1584.98C2797.35,1584.82 2798.4,1585.61 2798.56,1586.74C2798.72,1587.87 2797.94,1588.92 2796.8,1589.08C2790.51,1589.85 2785.2,1591.34 2780.79,1593.5C2775.88,1595.91 2772.09,1599.14 2769.27,1603.1C2770.57,1603.87 2772.06,1604.47 2773.77,1604.89C2775.65,1605.36 2777.78,1605.62 2780.17,1605.67C2780.78,1605.66 2781.28,1606.16 2781.28,1606.77C2781.28,1607.39 2780.79,1607.88 2780.17,1607.88C2776.99,1607.95 2774.22,1607.64 2771.84,1606.99C2769.81,1606.43 2768.05,1605.62 2766.55,1604.59C2765.97,1604.17 2765.8,1603.37 2766.18,1602.75C2768.94,1598.07 2772.83,1594.16 2778,1591.12ZM2658.19,1591.04C2655.99,1590 2653.37,1589.63 2650.55,1589.87C2647.46,1590.14 2644.15,1591.19 2640.79,1592.94C2639.76,1593.43 2638.53,1592.98 2638.04,1591.95C2637.56,1590.91 2638,1589.68 2639.04,1589.19C2643.93,1587.16 2648.66,1586.35 2652.78,1586.82C2655.69,1587.15 2658.3,1588.06 2660.42,1589.6C2665.59,1586.53 2669.87,1585.77 2672.88,1586.45C2675.95,1587.13 2677.93,1589.14 2678.55,1591.86C2679.43,1595.74 2677.37,1601.37 2670.89,1606.1C2670.4,1606.46 2669.7,1606.37 2669.33,1605.88C2668.96,1605.39 2669.06,1604.69 2669.55,1604.32C2673.84,1600.97 2675.89,1597.31 2676.05,1594.3C2676.18,1591.79 2674.79,1589.84 2672.28,1589.37C2670.09,1588.96 2667.21,1589.59 2663.77,1591.5C2659.13,1594.08 2653.63,1599 2647.63,1607.09C2646.93,1607.99 2645.63,1608.16 2644.73,1607.47C2643.82,1606.77 2643.65,1605.47 2644.35,1604.56C2649.33,1598.31 2654.01,1593.94 2658.19,1591.04ZM2684.88,1600.49L2682.3,1598.15C2681.55,1597.3 2681.62,1595.99 2682.48,1595.23C2683.34,1594.47 2684.64,1594.55 2685.4,1595.41L2687.18,1597.91L2689.55,1595.26C2690.39,1594.48 2691.7,1594.54 2692.47,1595.38C2693.25,1596.22 2693.19,1597.53 2692.35,1598.31L2689.15,1600.7L2690.47,1602.56C2690.87,1603.02 2690.83,1603.72 2690.37,1604.13C2689.92,1604.53 2689.21,1604.49 2688.81,1604.03L2686.95,1602.35L2684.61,1604.11C2684.15,1604.53 2683.45,1604.5 2683.04,1604.05C2682.62,1603.6 2682.65,1602.89 2683.1,1602.48L2684.88,1600.49ZM2705.9,1601.72C2704.89,1602.26 2703.64,1601.87 2703.1,1600.87C2702.57,1599.86 2702.95,1598.6 2703.96,1598.07C2710.99,1594.49 2717.81,1592.88 2724.44,1593.01C2731.34,1593.14 2738.04,1595.12 2744.57,1598.72C2744.99,1598.94 2745.26,1599.37 2745.28,1599.85C2745.29,1600.33 2745.05,1600.77 2744.64,1601.02L2734.39,1607.06C2733.87,1607.38 2733.19,1607.22 2732.87,1606.69C2732.55,1606.17 2732.71,1605.49 2733.23,1605.17C2733.23,1605.17 2741.23,1600.06 2741.23,1600.06C2735.72,1597.59 2730.13,1596.3 2724.44,1596.4C2718.37,1596.51 2712.21,1598.22 2705.9,1601.72ZM2705.42,1591.77C2704.31,1592.04 2703.19,1591.35 2702.92,1590.24C2702.65,1589.13 2703.33,1588.01 2704.44,1587.74C2711.22,1586.27 2717.89,1585.65 2724.47,1585.86C2731.15,1586.06 2737.73,1587.09 2744.22,1588.91C2744.82,1589.06 2745.18,1589.66 2745.03,1590.26C2744.88,1590.85 2744.27,1591.21 2743.68,1591.06C2737.32,1589.61 2730.91,1588.92 2724.45,1589.04C2718.16,1589.15 2711.82,1590.05 2705.42,1591.77ZM2790.22,1598.24C2789.41,1597.44 2789.41,1596.12 2790.22,1595.32C2791.03,1594.51 2792.34,1594.51 2793.15,1595.32L2801.38,1604.9C2801.81,1605.34 2801.81,1606.04 2801.38,1606.47C2800.94,1606.9 2800.24,1606.9 2799.81,1606.47L2790.22,1598.24Z"/>
            </g>
        </g>
    </g>
</svg>
