<?xml version="1.0" encoding="UTF-8" ?>
<!DOCTYPE svg PUBLIC "-//W3C//DTD SVG 1.1//EN" "http://www.w3.org/Graphics/SVG/1.1/DTD/svg11.dtd">
<svg width="512pt" height="512pt" viewBox="0 0 512 512" version="1.1" xmlns="http://www.w3.org/2000/svg">
<g id="#ffffffff">
<path fill="#ffffff" opacity="1.00" d=" M 5.21 87.43 C 172.40 87.48 339.60 87.48 506.79 87.43 C 506.76 199.81 506.76 312.20 506.80 424.58 C 339.60 424.53 172.40 424.53 5.21 424.59 C 5.24 312.20 5.24 199.81 5.21 87.43 M 9.24 91.36 C 9.25 110.23 9.25 129.10 9.24 147.97 C 9.23 151.31 9.57 154.71 8.76 158.00 C 9.48 160.97 9.28 164.03 9.25 167.06 C 9.24 196.70 9.26 226.34 9.24 255.99 C 173.90 255.94 338.57 256.09 503.23 255.91 C 503.21 201.07 503.17 146.24 503.25 91.40 C 338.58 91.31 173.91 91.41 9.24 91.36 Z" />
</g>
<g id="#cd0e27ff">
<path fill="#cd0e27" opacity="1.00" d=" M 9.24 91.36 C 173.91 91.41 338.58 91.31 503.25 91.40 C 503.17 146.24 503.21 201.07 503.23 255.91 C 338.57 256.09 173.90 255.94 9.24 255.99 C 9.26 226.34 9.24 196.70 9.25 167.06 C 9.28 164.03 9.48 160.97 8.76 158.00 C 9.57 154.71 9.23 151.31 9.24 147.97 C 9.25 129.10 9.25 110.23 9.24 91.36 Z" />
</g>
</svg>
