<?xml version="1.0" encoding="UTF-8" standalone="no"?>
<!DOCTYPE svg PUBLIC "-//W3C//DTD SVG 1.1//EN" "http://www.w3.org/Graphics/SVG/1.1/DTD/svg11.dtd">
<svg width="100%" height="100%" viewBox="0 0 45 18" version="1.1" xmlns="http://www.w3.org/2000/svg" xmlns:xlink="http://www.w3.org/1999/xlink" xml:space="preserve" xmlns:serif="http://www.serif.com/" style="fill-rule:evenodd;clip-rule:evenodd;stroke-linejoin:round;stroke-miterlimit:2;">
    <g transform="matrix(1,0,0,1,-3291.93,-2141.73)">
        <g transform="matrix(1.41864,0,0,1,0,0)">
            <g transform="matrix(0.704901,0,0,1,378.063,1247.56)">
                <path d="M2755.99,903.203C2755.32,902.28 2755.52,900.983 2756.45,900.311C2757.37,899.638 2758.67,899.842 2759.34,900.765C2759.34,900.765 2761.66,904.072 2764.51,906.329C2765.73,907.291 2767,908.132 2768.24,908.149C2768.67,908.155 2769.2,907.926 2769.82,907.611C2770.73,907.146 2771.76,906.475 2772.86,905.685C2776.64,902.971 2781.2,898.946 2784.93,896.512C2787.18,895.052 2789.2,894.167 2790.68,894.167C2793.58,894.169 2795.74,895.775 2797.25,898.031C2799.89,901.972 2800.49,907.864 2800.49,907.864C2800.55,908.373 2800.3,908.867 2799.86,909.123C2797.84,910.26 2795.66,911.104 2793.39,911.589C2791.16,912.065 2788.85,912.206 2786.49,911.946C2785.88,911.888 2785.43,911.345 2785.49,910.736C2785.55,910.127 2786.09,909.679 2786.7,909.738C2788.81,909.912 2790.88,909.73 2792.86,909.25C2794.59,908.831 2796.24,908.178 2797.8,907.329C2797.51,905.743 2796.71,902.193 2794.9,899.649C2793.9,898.239 2792.57,897.144 2790.72,897.194C2789.46,897.227 2787.79,898.335 2785.86,899.749C2782.09,902.515 2777.66,906.66 2774.09,909.24C2771.77,910.919 2769.67,911.895 2768.24,911.915C2766.27,911.942 2764.1,910.91 2762.12,909.432C2758.78,906.926 2755.99,903.203 2755.99,903.203Z"/>
            </g>
        </g>
    </g>
</svg>
