<?xml version="1.0" encoding="UTF-8" standalone="no"?>
<!DOCTYPE svg PUBLIC "-//W3C//DTD SVG 1.1//EN" "http://www.w3.org/Graphics/SVG/1.1/DTD/svg11.dtd">
<svg width="100%" height="100%" viewBox="0 0 37 23" version="1.1" xmlns="http://www.w3.org/2000/svg" xmlns:xlink="http://www.w3.org/1999/xlink" xml:space="preserve" xmlns:serif="http://www.serif.com/" style="fill-rule:evenodd;clip-rule:evenodd;stroke-linejoin:round;stroke-miterlimit:2;">
    <g transform="matrix(1,0,0,1,-3296.39,-2426.92)">
        <g transform="matrix(1.41864,0,0,1,0,0)">
            <g transform="matrix(0.704901,0,0,1,378.063,1247.56)">
                <path d="M2779.54,1196.21L2764.54,1201.76C2764.04,1201.93 2763.48,1201.77 2763.13,1201.37C2759.23,1197.07 2759.39,1192.38 2761.67,1188.41C2763.53,1185.17 2766.94,1182.42 2770.81,1180.83C2773.36,1179.78 2776.1,1179.26 2778.72,1179.38C2785.06,1179.79 2790.15,1181.84 2793.22,1185.25C2796.51,1188.91 2797.64,1194.11 2795.42,1200.56C2795.32,1200.89 2795.09,1201.16 2794.78,1201.32C2794.47,1201.48 2794.12,1201.51 2793.79,1201.4L2779.54,1196.21ZM2779.77,1194.69C2779.77,1194.69 2793.26,1198.56 2793.26,1198.56C2794.28,1193.88 2793.28,1190.18 2790.73,1187.58C2788.07,1184.86 2783.79,1183.39 2778.53,1183.2C2775.91,1183.05 2773.13,1183.73 2770.66,1184.94C2768.12,1186.19 2765.88,1187.99 2764.51,1190.13C2762.82,1192.77 2762.49,1195.9 2764.63,1199L2779.3,1194.69C2779.45,1194.64 2779.62,1194.64 2779.77,1194.69Z"/>
            </g>
        </g>
    </g>
</svg>
