<?xml version="1.0" encoding="UTF-8" standalone="no"?>
<!DOCTYPE svg PUBLIC "-//W3C//DTD SVG 1.1//EN" "http://www.w3.org/Graphics/SVG/1.1/DTD/svg11.dtd">
<svg width="100%" height="100%" viewBox="0 0 38 24" version="1.1" xmlns="http://www.w3.org/2000/svg" xmlns:xlink="http://www.w3.org/1999/xlink" xml:space="preserve" xmlns:serif="http://www.serif.com/" style="fill-rule:evenodd;clip-rule:evenodd;stroke-linejoin:round;stroke-miterlimit:2;">
    <g transform="matrix(1,0,0,1,-3294.74,-2889.3)">
        <g transform="matrix(1.41864,0,0,1,0,0)">
            <g transform="matrix(0.704901,0,0,1,378.063,1247.56)">
                <path d="M2772.78,1657.27C2771.72,1656.84 2771.21,1655.63 2771.63,1654.57C2772.06,1653.51 2773.27,1653 2774.33,1653.42L2795.68,1663.18C2796.2,1663.39 2796.44,1663.97 2796.24,1664.48C2796.03,1664.99 2795.45,1665.24 2794.94,1665.03L2772.78,1657.27Z"/>
            </g>
            <g transform="matrix(0.704901,0,0,1,378.063,1247.56)">
                <path d="M2792.53,1641.81C2793.63,1641.51 2794.77,1642.16 2795.07,1643.26C2795.37,1644.37 2794.72,1645.51 2793.62,1645.81L2759.67,1653.97C2759.14,1654.12 2758.59,1653.8 2758.44,1653.27C2758.3,1652.74 2758.61,1652.19 2759.14,1652.05L2792.53,1641.81Z"/>
            </g>
        </g>
    </g>
</svg>
