<?xml version="1.0" encoding="UTF-8" standalone="no"?>
<!DOCTYPE svg PUBLIC "-//W3C//DTD SVG 1.1//EN" "http://www.w3.org/Graphics/SVG/1.1/DTD/svg11.dtd">
<svg width="100%" height="100%" viewBox="0 0 45 17" version="1.1" xmlns="http://www.w3.org/2000/svg" xmlns:xlink="http://www.w3.org/1999/xlink" xml:space="preserve" xmlns:serif="http://www.serif.com/" style="fill-rule:evenodd;clip-rule:evenodd;stroke-linejoin:round;stroke-miterlimit:2;">
    <g transform="matrix(1,0,0,1,-3291.69,-2952.54)">
        <g transform="matrix(1.41864,0,0,1,0,0)">
            <g transform="matrix(0.704901,0,0,1,378.063,1247.56)">
                <path d="M2758.49,1715.33C2757.52,1715.92 2756.24,1715.61 2755.65,1714.63C2755.06,1713.65 2755.38,1712.37 2756.36,1711.78C2763.91,1707.43 2770.98,1705.26 2777.61,1705.01C2785.23,1704.72 2792.29,1706.93 2798.86,1711.34C2799.19,1711.56 2799.4,1711.92 2799.43,1712.31C2799.45,1712.71 2799.29,1713.09 2798.98,1713.35L2788.83,1721.47C2788.4,1721.82 2787.77,1721.76 2787.42,1721.34C2787.07,1720.91 2787.13,1720.28 2787.55,1719.93C2787.55,1719.93 2796.06,1712.58 2796.06,1712.58C2790.3,1709.35 2784.24,1707.83 2777.8,1708.32C2771.7,1708.78 2765.29,1711.06 2758.49,1715.33Z"/>
            </g>
        </g>
    </g>
</svg>
