<?xml version="1.0" encoding="UTF-8" standalone="no"?>
<!DOCTYPE svg PUBLIC "-//W3C//DTD SVG 1.1//EN" "http://www.w3.org/Graphics/SVG/1.1/DTD/svg11.dtd">
<svg width="100%" height="100%" viewBox="0 0 41 22" version="1.1" xmlns="http://www.w3.org/2000/svg" xmlns:xlink="http://www.w3.org/1999/xlink" xml:space="preserve" xmlns:serif="http://www.serif.com/" style="fill-rule:evenodd;clip-rule:evenodd;stroke-linejoin:round;stroke-miterlimit:2;">
    <g transform="matrix(1,0,0,1,-3293.29,-2195.97)">
        <g transform="matrix(1.41864,0,0,1,0,0)">
            <g transform="matrix(0.704901,0,0,1,378.063,1247.56)">
                <path d="M2759.91,955.134C2758.87,955.619 2757.64,955.172 2757.15,954.138C2756.67,953.103 2757.11,951.869 2758.15,951.384C2763.04,949.347 2767.77,948.544 2771.89,949.009C2775.32,949.396 2778.31,950.596 2780.6,952.661C2781.08,953.051 2781.14,953.751 2780.75,954.223C2780.36,954.695 2779.66,954.762 2779.19,954.373C2776.66,952.467 2773.34,951.743 2769.66,952.062C2766.57,952.329 2763.26,953.38 2759.91,955.134Z"/>
            </g>
            <g transform="matrix(0.704901,0,0,1,378.063,1247.56)">
                <path d="M2766.74,969.278C2766.04,970.184 2764.74,970.354 2763.84,969.657C2762.93,968.96 2762.76,967.659 2763.46,966.753C2775.8,951.275 2786.24,947.352 2791.99,948.637C2795.06,949.324 2797.04,951.336 2797.66,954.048C2798.54,957.932 2796.48,963.562 2790,968.286C2789.51,968.655 2788.81,968.558 2788.44,968.069C2788.07,967.581 2788.17,966.885 2788.66,966.516C2792.95,963.159 2795,959.502 2795.16,956.493C2795.29,953.976 2793.9,952.035 2791.39,951.563C2789.2,951.154 2786.32,951.779 2782.88,953.691C2778.24,956.271 2772.74,961.189 2766.74,969.278Z"/>
            </g>
        </g>
    </g>
</svg>
