<?xml version="1.0" encoding="UTF-8" standalone="no"?>
<!DOCTYPE svg PUBLIC "-//W3C//DTD SVG 1.1//EN" "http://www.w3.org/Graphics/SVG/1.1/DTD/svg11.dtd">
<svg width="100%" height="100%" viewBox="0 0 34 26" version="1.1" xmlns="http://www.w3.org/2000/svg" xmlns:xlink="http://www.w3.org/1999/xlink" xml:space="preserve" xmlns:serif="http://www.serif.com/" style="fill-rule:evenodd;clip-rule:evenodd;stroke-linejoin:round;stroke-miterlimit:2;">
    <g transform="matrix(1,0,0,1,-3296.46,-2540.75)">
        <g transform="matrix(1.41864,0,0,1,0,0)">
            <g transform="matrix(0.704901,0,0,1,378.063,1247.56)">
                <path d="M2770.81,1318.57C2769.69,1318.79 2768.6,1318.06 2768.37,1316.94C2768.15,1315.82 2768.87,1314.73 2769.99,1314.51C2772.08,1314.28 2774.14,1314.19 2776.24,1314.37C2778.26,1314.54 2780.27,1314.9 2782.32,1315.56C2782.86,1315.68 2783.19,1316.22 2783.07,1316.76C2782.95,1317.29 2782.41,1317.63 2781.88,1317.51C2779.94,1317.25 2778.09,1317.26 2776.26,1317.44C2774.39,1317.62 2772.6,1318.04 2770.81,1318.57Z"/>
            </g>
            <g transform="matrix(0.704901,0,0,1,378.063,1247.56)">
                <path d="M2768.71,1309.97C2767.59,1310.2 2766.5,1309.48 2766.27,1308.36C2766.04,1307.24 2766.76,1306.14 2767.88,1305.92C2771.12,1305.45 2774.23,1305.26 2777.24,1305.48C2780.45,1305.7 2783.5,1306.34 2786.37,1307.55C2786.89,1307.73 2787.17,1308.31 2786.98,1308.83C2786.8,1309.34 2786.23,1309.62 2785.71,1309.43C2782.97,1308.65 2780.14,1308.4 2777.2,1308.54C2774.44,1308.68 2771.61,1309.2 2768.71,1309.97Z"/>
            </g>
            <g transform="matrix(0.704901,0,0,1,378.063,1247.56)">
                <path d="M2763.23,1300.76C2762.24,1301.33 2760.97,1300.99 2760.41,1299.99C2759.84,1299 2760.18,1297.74 2761.17,1297.17C2766.66,1294.26 2772.07,1293.01 2777.45,1293.21C2782.77,1293.41 2788.04,1294.98 2793.27,1297.74C2793.76,1297.98 2793.97,1298.58 2793.73,1299.07C2793.49,1299.57 2792.89,1299.77 2792.39,1299.53C2787.37,1297.3 2782.39,1296.13 2777.44,1296.28C2772.65,1296.42 2767.93,1297.86 2763.23,1300.76Z"/>
            </g>
        </g>
    </g>
</svg>
