<?xml version="1.0" encoding="UTF-8" standalone="no"?>
<!DOCTYPE svg PUBLIC "-//W3C//DTD SVG 1.1//EN" "http://www.w3.org/Graphics/SVG/1.1/DTD/svg11.dtd">
<svg width="100%" height="100%" viewBox="0 0 47 24" version="1.1" xmlns="http://www.w3.org/2000/svg" xmlns:xlink="http://www.w3.org/1999/xlink" xml:space="preserve" xmlns:serif="http://www.serif.com/" style="fill-rule:evenodd;clip-rule:evenodd;stroke-linejoin:round;stroke-miterlimit:2;">
    <g transform="matrix(1,0,0,1,-3292.76,-3004.3)">
        <g transform="matrix(1.41864,0,0,1,0,0)">
            <g transform="matrix(0.704901,0,0,1,378.063,1247.56)">
                <path d="M2767.44,1772.18C2766.38,1771.75 2765.88,1770.54 2766.31,1769.48C2766.75,1768.42 2767.96,1767.92 2769.02,1768.36L2790.95,1778.59C2791.46,1778.8 2791.7,1779.38 2791.49,1779.89C2791.28,1780.4 2790.7,1780.65 2790.19,1780.44L2767.44,1772.18Z"/>
            </g>
            <g transform="matrix(0.704901,0,0,1,378.063,1248.46)">
                <path d="M2784.43,1769.06C2783.29,1769.06 2782.36,1768.13 2782.36,1766.99C2782.36,1765.85 2783.29,1764.92 2784.43,1764.92L2801.47,1765.99C2802.02,1765.99 2802.47,1766.44 2802.47,1766.99C2802.47,1767.54 2802.02,1767.99 2801.47,1767.99L2784.43,1769.06Z"/>
            </g>
            <g transform="matrix(0.704901,0,0,1,378.063,1247.56)">
                <path d="M2790.07,1756.81C2791.18,1756.53 2792.3,1757.21 2792.58,1758.32C2792.85,1759.43 2792.17,1760.55 2791.06,1760.83L2757.67,1767.96C2757.13,1768.09 2756.59,1767.77 2756.46,1767.23C2756.33,1766.7 2756.65,1766.15 2757.19,1766.02L2790.07,1756.81Z"/>
            </g>
        </g>
    </g>
</svg>
