<?xml version="1.0" encoding="UTF-8" standalone="no"?>
<!DOCTYPE svg PUBLIC "-//W3C//DTD SVG 1.1//EN" "http://www.w3.org/Graphics/SVG/1.1/DTD/svg11.dtd">
<svg width="100%" height="100%" viewBox="0 0 45 16" version="1.1" xmlns="http://www.w3.org/2000/svg" xmlns:xlink="http://www.w3.org/1999/xlink" xml:space="preserve" xmlns:serif="http://www.serif.com/" style="fill-rule:evenodd;clip-rule:evenodd;stroke-linejoin:round;stroke-miterlimit:2;">
    <g transform="matrix(1,0,0,1,-3294.49,-2721.9)">
        <g transform="matrix(1.41864,0,0,1,0,0)">
            <g transform="matrix(0.704901,0,0,1,378.063,1247.56)">
                <path d="M2801.74,1480.38C2802.72,1480.97 2803.05,1482.24 2802.46,1483.22C2801.88,1484.2 2800.61,1484.53 2799.62,1483.94C2793.1,1479.9 2786.59,1477.82 2780.08,1477.66C2773.99,1477.51 2767.91,1479 2761.83,1482.03L2771.08,1488.31C2771.54,1488.61 2771.67,1489.23 2771.37,1489.69C2771.07,1490.15 2770.45,1490.28 2769.99,1489.98L2758.72,1482.94C2758.36,1482.7 2758.14,1482.29 2758.16,1481.85C2758.17,1481.42 2758.41,1481.02 2758.78,1480.81C2765.8,1476.61 2772.91,1474.44 2780.1,1474.34C2787.22,1474.25 2794.43,1476.23 2801.74,1480.38Z"/>
            </g>
        </g>
    </g>
</svg>
