<?xml version="1.0" encoding="UTF-8" standalone="no"?>
<!DOCTYPE svg PUBLIC "-//W3C//DTD SVG 1.1//EN" "http://www.w3.org/Graphics/SVG/1.1/DTD/svg11.dtd">
<svg width="100%" height="100%" viewBox="0 0 48 22" version="1.1" xmlns="http://www.w3.org/2000/svg" xmlns:xlink="http://www.w3.org/1999/xlink" xml:space="preserve" xmlns:serif="http://www.serif.com/" style="fill-rule:evenodd;clip-rule:evenodd;stroke-linejoin:round;stroke-miterlimit:2;">
    <g transform="matrix(1,0,0,1,-3290.35,-2603.06)">
        <g transform="matrix(1.41864,0,0,1,0,0)">
            <g transform="matrix(0.704901,0,0,1,378.063,1247.56)">
                <path d="M2778.18,1372.28C2777.04,1372.27 2776.12,1371.34 2776.12,1370.2C2776.13,1369.06 2777.06,1368.13 2778.2,1368.14C2781.19,1368.31 2783.99,1368.94 2786.75,1369.91C2790.5,1371.24 2794.16,1373.15 2798.12,1375.19C2798.62,1375.42 2798.84,1376.02 2798.61,1376.52C2798.39,1377.02 2797.79,1377.24 2797.29,1377.02C2793.28,1375.44 2789.56,1373.96 2785.82,1373.06C2783.31,1372.46 2780.81,1372.16 2778.18,1372.28Z"/>
            </g>
            <g transform="matrix(0.704901,0,0,1,378.063,1247.56)">
                <path d="M2763.92,1357.7C2763.85,1356.56 2764.72,1355.58 2765.86,1355.51C2767,1355.43 2767.98,1356.3 2768.05,1357.44C2768.05,1357.44 2768.27,1363.17 2769.79,1367.52C2770.23,1368.77 2770.75,1369.91 2771.46,1370.68C2771.84,1371.09 2772.25,1371.41 2772.78,1371.44C2774.2,1371.5 2775.71,1370.26 2777.56,1368.71C2781.07,1365.8 2785.32,1361.6 2790.72,1359.23C2793.7,1357.93 2797.01,1357.15 2800.74,1357.43C2801.29,1357.46 2801.71,1357.93 2801.68,1358.48C2801.65,1359.03 2801.18,1359.45 2800.63,1359.42C2797.29,1359.32 2794.35,1360.14 2791.73,1361.42C2786.68,1363.9 2782.81,1368.12 2779.59,1371.04C2777.04,1373.36 2774.73,1374.82 2772.69,1374.81C2770.41,1374.81 2768.53,1373.16 2767.18,1370.64C2764.62,1365.84 2763.92,1357.7 2763.92,1357.7Z"/>
            </g>
            <g transform="matrix(0.704901,0,0,1,378.063,1247.56)">
                <path d="M2756.62,1361.28C2755.52,1361.58 2754.39,1360.92 2754.09,1359.82C2753.79,1358.72 2754.45,1357.58 2755.55,1357.28C2759.97,1356.28 2764.47,1355.88 2769.05,1356.04C2773.4,1356.19 2777.81,1356.81 2782.29,1357.86C2782.83,1357.97 2783.18,1358.49 2783.08,1359.03C2782.97,1359.58 2782.45,1359.93 2781.91,1359.83C2777.53,1359.16 2773.26,1358.91 2769.07,1359.11C2764.8,1359.31 2760.66,1360.02 2756.62,1361.28Z"/>
            </g>
        </g>
    </g>
</svg>
