<?xml version="1.0" encoding="UTF-8" standalone="no"?>
<!DOCTYPE svg PUBLIC "-//W3C//DTD SVG 1.1//EN" "http://www.w3.org/Graphics/SVG/1.1/DTD/svg11.dtd">
<svg width="100%" height="100%" viewBox="0 0 44 26" version="1.1" xmlns="http://www.w3.org/2000/svg" xmlns:xlink="http://www.w3.org/1999/xlink" xml:space="preserve" xmlns:serif="http://www.serif.com/" style="fill-rule:evenodd;clip-rule:evenodd;stroke-linejoin:round;stroke-miterlimit:2;">
    <g transform="matrix(1,0,0,1,-3291.93,-2250.08)">
        <g transform="matrix(1.41864,0,0,1,0,0)">
            <g transform="matrix(0.704901,0,0,1,378.063,1247.56)">
                <path d="M2783.48,1009.92C2788.13,1009.73 2792.53,1011.12 2795.42,1013.16C2797.33,1014.51 2798.63,1016.13 2799.08,1017.77C2799.62,1019.76 2799.15,1021.84 2796.94,1023.63C2794.95,1025.24 2791.36,1026.69 2785.57,1027.43C2775.36,1029.03 2769.67,1024.92 2768.93,1020.79C2768.16,1016.53 2772.36,1011.04 2783.48,1009.92ZM2783.77,1014.05C2778.78,1014.24 2775.36,1015.4 2773.48,1017.11C2772.39,1018.09 2771.84,1019.2 2771.98,1020.31C2772.13,1021.46 2772.92,1022.54 2774.25,1023.37C2776.55,1024.81 2780.26,1025.5 2785.2,1024.85C2790.22,1024.06 2793.38,1022.86 2795.05,1021.39C2796.04,1020.52 2796.36,1019.59 2796.05,1018.68C2795.72,1017.68 2794.77,1016.79 2793.53,1016.02C2791.1,1014.52 2787.5,1013.67 2783.77,1014.05Z"/>
            </g>
            <g transform="matrix(0.704901,0,0,1,378.063,1247.56)">
                <path d="M2758.45,1008.9C2757.39,1009.33 2756.18,1008.82 2755.75,1007.76C2755.32,1006.7 2755.83,1005.49 2756.89,1005.06C2760.8,1003.6 2765.26,1002.8 2770.18,1002.58C2776.14,1002.32 2782.77,1002.87 2789.86,1004.02C2790.47,1004.1 2790.9,1004.65 2790.82,1005.26C2790.74,1005.87 2790.18,1006.3 2789.57,1006.22C2782.64,1005.51 2776.19,1005.34 2770.43,1005.94C2765.96,1006.41 2761.94,1007.35 2758.45,1008.9Z"/>
            </g>
        </g>
    </g>
</svg>
