<?xml version="1.0" encoding="UTF-8" standalone="no"?>
<!DOCTYPE svg PUBLIC "-//W3C//DTD SVG 1.1//EN" "http://www.w3.org/Graphics/SVG/1.1/DTD/svg11.dtd">
<svg width="100%" height="100%" viewBox="0 0 30 24" version="1.1" xmlns="http://www.w3.org/2000/svg" xmlns:xlink="http://www.w3.org/1999/xlink" xml:space="preserve" xmlns:serif="http://www.serif.com/" style="fill-rule:evenodd;clip-rule:evenodd;stroke-linejoin:round;stroke-miterlimit:2;">
    <g transform="matrix(1,0,0,1,-3302.32,-2656.81)">
        <g transform="matrix(1.41864,0,0,1,0,0)">
            <g transform="matrix(0.704901,0,0,1,378.063,1247.56)">
                <path d="M2792.37,1409.37C2793.44,1408.99 2794.63,1409.54 2795.02,1410.62C2795.41,1411.69 2794.85,1412.88 2793.78,1413.27C2793.78,1413.27 2771.59,1420.83 2771.59,1420.83L2793.2,1431.21C2793.7,1431.44 2793.93,1432.04 2793.7,1432.54C2793.47,1433.04 2792.88,1433.26 2792.37,1433.03L2766.89,1421.99C2766.32,1421.73 2765.96,1421.15 2765.99,1420.53C2766.01,1419.9 2766.41,1419.35 2767,1419.14L2792.37,1409.37Z"/>
            </g>
        </g>
    </g>
</svg>
