<?xml version="1.0" encoding="UTF-8" standalone="no"?>
<!DOCTYPE svg PUBLIC "-//W3C//DTD SVG 1.1//EN" "http://www.w3.org/Graphics/SVG/1.1/DTD/svg11.dtd">
<svg width="100%" height="100%" viewBox="0 0 43 22" version="1.1" xmlns="http://www.w3.org/2000/svg" xmlns:xlink="http://www.w3.org/1999/xlink" xml:space="preserve" xmlns:serif="http://www.serif.com/" style="fill-rule:evenodd;clip-rule:evenodd;stroke-linejoin:round;stroke-miterlimit:2;">
    <g transform="matrix(1,0,0,1,-3293.51,-3183.92)">
        <g transform="matrix(1.41864,0,0,1,0,0)">
            <g transform="matrix(0.704901,0,0,1,378.063,1247.56)">
                <path d="M2774.17,1947.15C2773.19,1946.56 2772.87,1945.29 2773.46,1944.31C2774.05,1943.33 2775.32,1943.01 2776.3,1943.6L2785.96,1950.64C2786.43,1950.93 2786.59,1951.54 2786.3,1952.01C2786.02,1952.49 2785.4,1952.64 2784.93,1952.36L2774.17,1947.15Z"/>
            </g>
            <g transform="matrix(0.704901,0,0,1,378.063,1247.56)">
                <path d="M2772.9,1953.73C2774,1954.04 2774.64,1955.18 2774.33,1956.28C2774.03,1957.38 2772.88,1958.03 2771.78,1957.72C2768.44,1956.72 2765.55,1955.59 2763.12,1954.33C2761.02,1953.24 2759.24,1952.05 2757.8,1950.77C2757.39,1950.42 2757.16,1949.91 2757.17,1949.37C2757.18,1948.83 2757.44,1948.33 2757.87,1948C2764.33,1943.16 2773.24,1938.96 2781.47,1937.22C2788.28,1935.78 2794.62,1936.03 2798.82,1938.82C2799.29,1939.12 2799.43,1939.74 2799.13,1940.2C2798.84,1940.66 2798.22,1940.8 2797.75,1940.51C2793.87,1938.13 2788.14,1938.26 2782.07,1939.79C2775.12,1941.53 2767.72,1945.16 2761.96,1949.37C2763.17,1950.13 2764.55,1950.83 2766.1,1951.49C2768.09,1952.33 2770.35,1953.07 2772.9,1953.73Z"/>
            </g>
        </g>
    </g>
</svg>
