<?xml version="1.0" encoding="UTF-8" standalone="no"?>
<!DOCTYPE svg PUBLIC "-//W3C//DTD SVG 1.1//EN" "http://www.w3.org/Graphics/SVG/1.1/DTD/svg11.dtd">
<svg width="100%" height="100%" viewBox="0 0 43 22" version="1.1" xmlns="http://www.w3.org/2000/svg" xmlns:xlink="http://www.w3.org/1999/xlink" xml:space="preserve" xmlns:serif="http://www.serif.com/" style="fill-rule:evenodd;clip-rule:evenodd;stroke-linejoin:round;stroke-miterlimit:2;">
    <g transform="matrix(1,0,0,1,-3293.29,-2313)">
        <g transform="matrix(1.41864,0,0,1,0,0)">
            <g transform="matrix(0.704901,0,0,1,378.063,1247.56)">
                <path d="M2760,1081.35C2758.99,1081.88 2757.74,1081.5 2757.2,1080.49C2756.66,1079.48 2757.05,1078.23 2758.05,1077.69C2765.09,1074.11 2771.9,1072.51 2778.54,1072.63C2785.43,1072.76 2792.14,1074.74 2798.66,1078.35C2799.09,1078.57 2799.36,1079 2799.37,1079.47C2799.39,1079.95 2799.14,1080.4 2798.74,1080.65L2788.49,1086.68C2787.96,1087.01 2787.28,1086.84 2786.96,1086.32C2786.64,1085.8 2786.8,1085.12 2787.33,1084.8C2787.33,1084.8 2795.32,1079.68 2795.32,1079.69C2789.81,1077.21 2784.22,1075.93 2778.53,1076.03C2772.47,1076.13 2766.3,1077.85 2760,1081.35Z"/>
            </g>
            <g transform="matrix(0.704901,0,0,1,378.063,1247.56)">
                <path d="M2759.51,1071.39C2758.41,1071.66 2757.28,1070.98 2757.01,1069.87C2756.74,1068.76 2757.43,1067.64 2758.54,1067.37C2765.32,1065.89 2771.98,1065.28 2778.56,1065.48C2785.24,1065.69 2791.83,1066.72 2798.32,1068.53C2798.91,1068.68 2799.27,1069.29 2799.12,1069.88C2798.97,1070.47 2798.37,1070.83 2797.77,1070.68C2791.41,1069.24 2785.01,1068.55 2778.54,1068.66C2772.25,1068.78 2765.92,1069.67 2759.51,1071.39Z"/>
            </g>
        </g>
    </g>
</svg>
