<?xml version="1.0" encoding="UTF-8" standalone="no"?>
<!DOCTYPE svg PUBLIC "-//W3C//DTD SVG 1.1//EN" "http://www.w3.org/Graphics/SVG/1.1/DTD/svg11.dtd">
<svg width="100%" height="100%" viewBox="0 0 40 24" version="1.1" xmlns="http://www.w3.org/2000/svg" xmlns:xlink="http://www.w3.org/1999/xlink" xml:space="preserve" xmlns:serif="http://www.serif.com/" style="fill-rule:evenodd;clip-rule:evenodd;stroke-linejoin:round;stroke-miterlimit:2;">
    <g transform="matrix(1,0,0,1,-3295.51,-2832.44)">
        <g transform="matrix(1.41864,0,0,1,0,0)">
            <g transform="matrix(0.704901,0,0,1,378.063,1247.56)">
                <path d="M2761.48,1589.09C2760.34,1589.22 2759.32,1588.4 2759.19,1587.26C2759.06,1586.13 2759.88,1585.1 2761.02,1584.98C2764.97,1584.73 2768.57,1584.97 2771.82,1585.79C2775.51,1586.72 2778.75,1588.31 2781.49,1590.69C2781.97,1591.07 2782.06,1591.77 2781.68,1592.25C2781.3,1592.73 2780.6,1592.81 2780.12,1592.43C2777.5,1590.56 2774.52,1589.42 2771.19,1588.9C2768.22,1588.45 2764.98,1588.54 2761.48,1589.09Z"/>
            </g>
            <g transform="matrix(0.704901,0,0,1,378.063,1247.56)">
                <path d="M2796.22,1584.98C2797.35,1584.82 2798.4,1585.61 2798.56,1586.74C2798.72,1587.87 2797.94,1588.92 2796.8,1589.08C2790.51,1589.85 2785.2,1591.34 2780.79,1593.5C2775.88,1595.91 2772.09,1599.14 2769.27,1603.1C2770.57,1603.87 2772.06,1604.47 2773.77,1604.89C2775.65,1605.36 2777.78,1605.62 2780.17,1605.67C2780.78,1605.66 2781.28,1606.16 2781.28,1606.77C2781.28,1607.39 2780.79,1607.88 2780.17,1607.88C2776.99,1607.95 2774.22,1607.64 2771.84,1606.99C2769.81,1606.43 2768.05,1605.62 2766.55,1604.59C2765.97,1604.17 2765.8,1603.37 2766.18,1602.75C2769.15,1597.71 2773.43,1593.56 2779.21,1590.43C2783.86,1587.92 2789.49,1586.08 2796.22,1584.98Z"/>
            </g>
        </g>
    </g>
</svg>
