<?xml version="1.0" encoding="UTF-8" standalone="no"?>
<!DOCTYPE svg PUBLIC "-//W3C//DTD SVG 1.1//EN" "http://www.w3.org/Graphics/SVG/1.1/DTD/svg11.dtd">
<svg width="100%" height="100%" viewBox="0 0 37 26" version="1.1" xmlns="http://www.w3.org/2000/svg" xmlns:xlink="http://www.w3.org/1999/xlink" xml:space="preserve" xmlns:serif="http://www.serif.com/" style="fill-rule:evenodd;clip-rule:evenodd;stroke-linejoin:round;stroke-miterlimit:2;">
    <g transform="matrix(1,0,0,1,-3296.46,-2366.07)">
        <g transform="matrix(1.41864,0,0,1,0,0)">
            <g transform="matrix(0.704901,0,0,1,378.063,1247.56)">
                <path d="M2776.03,1132.62C2775.74,1132.38 2775.43,1132.14 2775.14,1131.89C2771.61,1129.04 2768.27,1126.06 2765.17,1122.9C2764.84,1122.55 2764.71,1122.06 2764.84,1121.6C2764.97,1121.14 2765.33,1120.78 2765.79,1120.65C2770.6,1119.3 2775.51,1118.59 2780.52,1118.52C2785.36,1118.45 2790.3,1118.99 2795.33,1120.12C2795.93,1120.27 2796.41,1120.74 2796.56,1121.34C2796.71,1121.94 2796.51,1122.58 2796.05,1122.99C2791.59,1127.01 2786.67,1130.61 2781.38,1133.86C2784.96,1136.67 2788.67,1139.38 2792.45,1142.06C2792.9,1142.37 2793.02,1142.99 2792.7,1143.45C2792.39,1143.9 2791.77,1144.01 2791.31,1143.7C2787.2,1140.91 2783.15,1138.08 2779.26,1135.13C2774.15,1138.13 2768.71,1140.82 2762.99,1143.26C2761.94,1143.69 2760.73,1143.19 2760.29,1142.14C2759.85,1141.08 2760.35,1139.87 2761.41,1139.43C2766.51,1137.38 2771.4,1135.12 2776.03,1132.62ZM2778.28,1131.37C2778.34,1131.34 2778.39,1131.31 2778.44,1131.28C2783.01,1128.67 2787.3,1125.8 2791.27,1122.63C2787.64,1121.93 2784.07,1121.56 2780.53,1121.53C2776.55,1121.5 2772.62,1121.9 2768.76,1122.73C2771.26,1125.26 2773.91,1127.68 2776.68,1130.03C2777.21,1130.48 2777.75,1130.92 2778.28,1131.37Z"/>
            </g>
        </g>
    </g>
</svg>
