<?xml version="1.0" encoding="UTF-8" standalone="no"?>
<!DOCTYPE svg PUBLIC "-//W3C//DTD SVG 1.1//EN" "http://www.w3.org/Graphics/SVG/1.1/DTD/svg11.dtd">
<svg width="100%" height="100%" viewBox="0 0 41 26" version="1.1" xmlns="http://www.w3.org/2000/svg" xmlns:xlink="http://www.w3.org/1999/xlink" xml:space="preserve" xmlns:serif="http://www.serif.com/" style="fill-rule:evenodd;clip-rule:evenodd;stroke-linejoin:round;stroke-miterlimit:2;">
    <g transform="matrix(1,0,0,1,-3293.23,-3059.7)">
        <g transform="matrix(1.41864,0,0,1,0,0)">
            <g transform="matrix(0.704901,0,0,1,378.063,1247.56)">
                <path d="M2771.59,1816.14C2770.52,1815.72 2769.99,1814.52 2770.41,1813.46C2770.83,1812.39 2772.03,1811.87 2773.09,1812.28C2774.84,1813.14 2776.58,1813.69 2778.38,1813.84C2780.26,1814 2782.14,1813.82 2784.08,1813.28C2784.6,1813.08 2785.17,1813.34 2785.37,1813.86C2785.56,1814.37 2785.3,1814.95 2784.79,1815.14C2782.68,1816.15 2780.56,1816.71 2778.39,1816.91C2776.15,1817.11 2773.9,1816.82 2771.59,1816.14Z"/>
            </g>
            <g transform="matrix(0.704901,0,0,1,378.063,1247.56)">
                <path d="M2767.56,1825.73C2766.48,1825.36 2765.9,1824.18 2766.27,1823.1C2766.63,1822.02 2767.81,1821.44 2768.89,1821.8C2771.84,1822.98 2774.85,1823.7 2777.96,1823.89C2781.04,1824.08 2784.18,1823.79 2787.41,1822.98C2787.94,1822.81 2788.5,1823.11 2788.66,1823.63C2788.82,1824.16 2788.53,1824.72 2788,1824.88C2784.62,1826.14 2781.27,1826.8 2777.94,1826.96C2774.45,1827.13 2771,1826.68 2767.56,1825.73Z"/>
            </g>
            <g transform="matrix(0.704901,0,0,1,378.063,1247.56)">
                <path d="M2758.43,1835.48C2757.33,1835.19 2756.67,1834.05 2756.96,1832.95C2757.26,1831.85 2758.39,1831.19 2759.5,1831.48C2765.64,1833.31 2771.72,1834.36 2777.76,1834.56C2783.98,1834.77 2790.13,1834.09 2796.22,1832.44C2796.75,1832.29 2797.31,1832.58 2797.47,1833.11C2797.63,1833.64 2797.33,1834.2 2796.8,1834.36C2790.57,1836.43 2784.22,1837.48 2777.75,1837.63C2771.41,1837.78 2764.97,1837.03 2758.43,1835.48Z"/>
            </g>
        </g>
    </g>
</svg>
