<?xml version="1.0" encoding="UTF-8" standalone="no"?>
<!DOCTYPE svg PUBLIC "-//W3C//DTD SVG 1.1//EN" "http://www.w3.org/Graphics/SVG/1.1/DTD/svg11.dtd">
<svg width="100%" height="100%" viewBox="0 0 40 23" version="1.1" xmlns="http://www.w3.org/2000/svg" xmlns:xlink="http://www.w3.org/1999/xlink" xml:space="preserve" xmlns:serif="http://www.serif.com/" style="fill-rule:evenodd;clip-rule:evenodd;stroke-linejoin:round;stroke-miterlimit:2;">
    <g transform="matrix(1,0,0,1,-3293.83,-2484.77)">
        <g transform="matrix(1.41864,0,0,1,0,0)">
            <g transform="matrix(0.704901,0,0,1,378.063,1247.56)">
                <path d="M2767.87,1257.31C2768.42,1257.29 2768.88,1257.73 2768.89,1258.28C2768.91,1258.83 2768.48,1259.29 2767.93,1259.31C2766.48,1259.41 2764.84,1259.62 2763.34,1259.55C2762.05,1259.48 2760.87,1259.19 2759.9,1258.57C2758.49,1257.66 2757.49,1256.01 2757.5,1253.03C2757.51,1248.75 2759.93,1244.76 2763.41,1241.85C2766.83,1238.99 2771.27,1237.27 2775.24,1237.21C2777.26,1237.21 2779.23,1237.48 2781.1,1238.02C2783.96,1238.85 2786.61,1240.23 2788.89,1241.96C2793.2,1245.22 2796.23,1249.66 2797.16,1253.67C2797.68,1256.02 2796.98,1257.48 2795.49,1258.37C2793.7,1259.44 2790.31,1259.52 2786.49,1259.31C2785.94,1259.3 2785.5,1258.84 2785.51,1258.29C2785.51,1257.74 2785.97,1257.3 2786.52,1257.31C2789.2,1257.24 2791.64,1257.12 2793.26,1256.52C2793.77,1256.32 2794.17,1256.08 2794.37,1255.7C2794.53,1255.38 2794.44,1254.97 2794.28,1254.43C2793.29,1251.11 2790.42,1247.63 2786.65,1245.07C2784.66,1243.72 2782.41,1242.64 2779.99,1241.99C2778.46,1241.57 2776.87,1241.31 2775.23,1241.31C2772.07,1241.24 2768.53,1242.59 2765.7,1244.73C2762.86,1246.87 2760.66,1249.79 2760.43,1253.13C2760.31,1254.83 2760.61,1255.87 2761.38,1256.44C2762.98,1257.65 2765.69,1257.29 2767.87,1257.31Z"/>
            </g>
        </g>
    </g>
</svg>
