<?xml version="1.0" encoding="UTF-8" standalone="no"?>
<!DOCTYPE svg PUBLIC "-//W3C//DTD SVG 1.1//EN" "http://www.w3.org/Graphics/SVG/1.1/DTD/svg11.dtd">
<svg width="100%" height="100%" viewBox="0 0 46 19" version="1.1" xmlns="http://www.w3.org/2000/svg" xmlns:xlink="http://www.w3.org/1999/xlink" xml:space="preserve" xmlns:serif="http://www.serif.com/" style="fill-rule:evenodd;clip-rule:evenodd;stroke-linejoin:round;stroke-miterlimit:2;">
    <g transform="matrix(1,0,0,1,-3290.6,-3126.39)">
        <g transform="matrix(1.41864,0,0,1,0,0)">
            <g transform="matrix(0.704901,0,0,1,378.063,1247.56)">
                <path d="M2760.93,1882.03C2760.77,1880.9 2761.55,1879.85 2762.68,1879.68C2763.81,1879.52 2764.87,1880.3 2765.03,1881.43C2765.03,1881.43 2765.71,1886.91 2767.66,1890.89C2768.12,1891.82 2768.63,1892.67 2769.26,1893.3C2769.78,1893.83 2770.35,1894.23 2771.05,1894.21C2772.84,1894.17 2774.5,1892.84 2776.16,1891.22C2778.8,1888.65 2781.32,1885.29 2783.81,1883.22C2785.45,1881.85 2787.1,1881.01 2788.73,1881.04C2790.88,1881.07 2792.86,1882.27 2794.49,1883.96C2797.4,1886.99 2799.21,1891.48 2799.21,1891.48C2799.42,1891.99 2799.18,1892.57 2798.68,1892.79C2798.17,1893 2797.58,1892.76 2797.37,1892.26C2797.37,1892.26 2795.58,1888.25 2792.84,1885.61C2791.64,1884.46 2790.26,1883.55 2788.74,1883.59C2787.03,1883.63 2785.47,1885.25 2783.8,1887.14C2781.37,1889.88 2778.89,1893.34 2776.26,1895.46C2774.64,1896.76 2772.94,1897.56 2771.2,1897.66C2768.9,1897.8 2766.93,1896.45 2765.38,1894.28C2762.27,1889.92 2760.93,1882.03 2760.93,1882.03Z"/>
            </g>
            <g transform="matrix(0.704901,0,0,1,378.063,1247.56)">
                <path d="M2756.35,1882.97C2755.2,1882.98 2754.27,1882.05 2754.27,1880.91C2754.26,1879.77 2755.18,1878.84 2756.33,1878.83L2773.99,1879.82C2774.54,1879.82 2774.99,1880.26 2775,1880.81C2775,1881.37 2774.55,1881.82 2774,1881.82L2756.35,1882.97Z"/>
            </g>
        </g>
    </g>
</svg>
