<?xml version="1.0" encoding="UTF-8" standalone="no"?>
<!DOCTYPE svg PUBLIC "-//W3C//DTD SVG 1.1//EN" "http://www.w3.org/Graphics/SVG/1.1/DTD/svg11.dtd">
<svg width="100%" height="100%" viewBox="0 0 45 28" version="1.1" xmlns="http://www.w3.org/2000/svg" xmlns:xlink="http://www.w3.org/1999/xlink" xml:space="preserve" xmlns:serif="http://www.serif.com/" style="fill-rule:evenodd;clip-rule:evenodd;stroke-linejoin:round;stroke-miterlimit:2;">
    <g transform="matrix(1,0,0,1,-3431.39,-2404.78)">
        <g transform="matrix(2.05004,0,0,1,0,0)">
            <g transform="matrix(0.487795,0,0,1,-306.181,1210.04)">
                <path d="M4098.63,1215.3C4098.15,1214.85 4097.62,1214.33 4097.07,1213.78C4094.74,1211.42 4092.2,1208.61 4092.2,1208.61C4091.78,1208.25 4091.72,1207.62 4092.08,1207.2C4092.43,1206.78 4093.06,1206.72 4093.49,1207.07C4093.49,1207.07 4096.7,1209.08 4099.43,1210.97C4100.29,1211.56 4101.08,1212.14 4101.72,1212.63C4102.61,1213.32 4103.18,1213.81 4103.18,1213.81C4103.68,1214.23 4103.95,1214.85 4103.92,1215.49C4103.89,1216.14 4103.56,1216.73 4103.03,1217.1C4103.03,1217.1 4101.41,1218.14 4099.5,1219.2C4096.96,1220.62 4093.98,1222.07 4093.98,1222.07C4093.53,1222.38 4092.91,1222.27 4092.59,1221.81C4092.28,1221.36 4092.39,1220.74 4092.85,1220.42C4092.85,1220.42 4095.25,1218.15 4097.46,1216.27C4097.87,1215.92 4098.26,1215.6 4098.63,1215.3Z"/>
            </g>
            <g transform="matrix(0.487795,0,0,1,-306.181,1460.78)">
                <path d="M4075.23,946.973C4074.42,947.017 4073.73,946.397 4073.69,945.589C4073.64,944.781 4074.26,944.09 4075.07,944.046C4075.6,944.017 4076.13,944.002 4076.67,944.002C4077.21,944.002 4077.74,944.017 4078.26,944.046C4079.07,944.09 4079.69,944.781 4079.65,945.589C4079.6,946.397 4078.91,947.017 4078.11,946.973C4077.63,946.947 4077.15,946.934 4076.67,946.934C4076.18,946.934 4075.7,946.947 4075.23,946.973ZM4083.72,947.943C4082.95,947.706 4082.51,946.886 4082.75,946.112C4082.99,945.339 4083.81,944.903 4084.58,945.14C4085.67,945.473 4086.68,945.87 4087.62,946.324C4088.35,946.677 4088.65,947.554 4088.3,948.282C4087.94,949.01 4087.07,949.314 4086.34,948.961C4085.53,948.571 4084.66,948.229 4083.72,947.943ZM4090.46,952.225C4090,951.559 4090.17,950.646 4090.84,950.186C4091.5,949.726 4092.41,949.893 4092.88,950.558C4093.62,951.629 4094.08,952.783 4094.24,953.985C4094.35,954.786 4093.79,955.525 4092.99,955.634C4092.19,955.742 4091.45,955.179 4091.34,954.378C4091.24,953.621 4090.93,952.9 4090.46,952.225ZM4089.65,958.622C4090.22,958.045 4091.15,958.036 4091.73,958.603C4092.3,959.17 4092.31,960.099 4091.74,960.676C4091,961.434 4090.1,962.136 4089.07,962.762C4088.38,963.181 4087.48,962.961 4087.06,962.269C4086.64,961.578 4086.86,960.676 4087.55,960.256C4088.36,959.764 4089.07,959.217 4089.65,958.622ZM4082.35,962.302C4083.14,962.117 4083.93,962.606 4084.11,963.393C4084.3,964.181 4083.81,964.971 4083.02,965.156C4082.01,965.393 4080.95,965.576 4079.86,965.698C4079.06,965.787 4078.33,965.207 4078.24,964.403C4078.15,963.599 4078.73,962.874 4079.54,962.784C4080.51,962.676 4081.45,962.514 4082.35,962.302ZM4073.8,962.784C4074.6,962.874 4075.18,963.599 4075.1,964.403C4075.01,965.207 4074.28,965.787 4073.48,965.698C4072.38,965.576 4071.32,965.393 4070.31,965.156C4069.53,964.971 4069.04,964.181 4069.22,963.393C4069.41,962.606 4070.2,962.117 4070.98,962.302C4071.88,962.514 4072.83,962.676 4073.8,962.784ZM4065.79,960.256C4066.48,960.676 4066.7,961.578 4066.28,962.269C4065.86,962.961 4064.96,963.181 4064.26,962.762C4063.23,962.136 4062.34,961.434 4061.59,960.676C4061.02,960.099 4061.03,959.17 4061.61,958.603C4062.19,958.036 4063.12,958.045 4063.68,958.622C4064.27,959.217 4064.98,959.764 4065.79,960.256ZM4062,954.378C4061.89,955.179 4061.15,955.742 4060.35,955.634C4059.55,955.525 4058.98,954.786 4059.09,953.985C4059.25,952.783 4059.72,951.629 4060.46,950.558C4060.92,949.893 4061.83,949.726 4062.5,950.186C4063.16,950.646 4063.33,951.559 4062.87,952.225C4062.41,952.9 4062.1,953.621 4062,954.378ZM4067,948.961C4066.27,949.314 4065.39,949.01 4065.04,948.282C4064.69,947.554 4064.99,946.677 4065.72,946.324C4066.65,945.87 4067.67,945.473 4068.75,945.14C4069.53,944.903 4070.35,945.339 4070.59,946.112C4070.82,946.886 4070.39,947.706 4069.61,947.943C4068.68,948.229 4067.8,948.571 4067,948.961Z"/>
            </g>
        </g>
    </g>
</svg>
