<svg width="238" height="94" viewBox="0 0 238 94" fill="none" xmlns="http://www.w3.org/2000/svg">
<path fill-rule="evenodd" clip-rule="evenodd" d="M88.369 21.5737C78.9194 17.1086 67.6664 15.5199 55.5538 16.5503C42.2815 17.7095 28.0642 22.2173 13.6322 29.7306C9.20811 31.8344 3.92496 29.9024 1.82029 25.4802C-0.241422 21.0152 1.64848 15.7343 6.11553 13.6306C27.1193 4.91509 47.4357 1.4375 65.1321 3.45537C77.6312 4.87218 88.8413 8.77925 97.9473 15.391C120.154 2.21043 138.537 -1.05262 151.466 1.86686C164.652 4.78633 173.157 13.4161 175.82 25.094C179.6 41.7522 170.751 65.9237 142.918 86.2312C140.814 87.7768 137.808 87.3905 136.219 85.2868C134.629 83.183 135.059 80.1774 137.163 78.5889C155.59 64.2062 164.395 48.493 165.082 35.57C165.641 24.7937 159.67 16.4215 148.889 14.4036C139.483 12.6433 127.112 15.3482 112.337 23.5485C92.4068 34.6253 68.7824 55.7484 43.011 90.4815C40.0043 94.3455 34.4209 95.0754 30.5552 92.113C26.6465 89.1077 25.9168 83.5267 28.9235 79.6198C50.3138 52.7864 70.4149 34.0244 88.369 21.5737ZM203.009 62.1456L191.928 52.0993C188.706 48.45 189.007 42.8255 192.701 39.5625C196.394 36.2996 201.978 36.6433 205.242 40.3356L212.888 51.0689L223.068 39.6915C226.676 36.3427 232.303 36.6002 235.61 40.2067C238.96 43.8131 238.703 49.4376 235.095 52.7864L221.349 63.047L227.019 71.0331C228.738 73.008 228.566 76.0131 226.591 77.7734C224.658 79.4907 221.608 79.3191 219.89 77.3442L211.9 70.1311L201.85 77.6875C199.874 79.4907 196.867 79.3621 195.106 77.4301C193.302 75.4981 193.431 72.4496 195.364 70.6893L203.009 62.1456Z" fill="black"/>
</svg>
