<svg width="184" height="93" viewBox="0 0 184 93" fill="none" xmlns="http://www.w3.org/2000/svg">
<path d="M1.99764 65.0717C4.31706 69.365 9.68526 71.0393 14.0235 68.7209C41.1264 53.6942 67.5853 46.3528 93.6574 45.8806C118.097 45.4512 142.108 50.9898 165.775 61.5944L131.413 83.5333C129.179 84.9072 128.493 87.8262 129.867 90.0587C131.241 92.3342 134.161 93.0216 136.395 91.6478L180.421 65.7158C182.182 64.6425 183.214 62.7532 183.171 60.6924C183.085 58.6316 181.925 56.7854 180.121 55.8409C152.073 40.3849 123.295 31.8842 93.6574 31.3261C65.1799 30.7679 35.8865 37.68 5.69093 53.0501C1.35274 55.3256 -0.278842 60.7354 1.99764 65.0717Z" fill="black"/>
<path d="M1.22374 19.4334C2.38345 24.199 7.19412 27.1616 11.9618 26.0024C39.4514 18.6178 66.6833 14.7539 93.7004 14.2816C121.448 13.7664 148.98 16.7289 176.298 22.9543C178.832 23.5983 181.452 22.0524 182.097 19.5194C182.741 16.9434 181.195 14.3675 178.617 13.7235C150.741 5.90958 122.479 1.48722 93.7864 0.628554C65.5237 -0.273048 36.8743 2.38885 7.75258 8.70006C2.98486 9.85926 0.0640251 14.6678 1.22374 19.4334Z" fill="black"/>
</svg>
