<svg width="183" height="99" viewBox="0 0 183 99" fill="none" xmlns="http://www.w3.org/2000/svg">
<path d="M51.773 17.2581C62.3393 18.9325 72.1327 22.0236 81.0238 26.7892C58.8174 39.8409 42.1087 56.6279 30.2538 76.7208C28.6216 79.3827 29.3523 82.8172 31.8435 84.6204C38.2864 89.0425 45.8462 92.5202 54.5655 94.9245C64.7882 97.7152 76.6853 99.0462 90.3441 98.7457C93.0072 98.7457 95.1123 96.642 95.1123 93.9801C95.1123 91.3612 92.9642 89.2146 90.3441 89.2575C80.0785 89.0429 70.9301 87.9265 62.8551 85.9086C55.5102 84.1054 49.1103 81.5292 43.5265 78.2233C55.639 61.2217 71.9181 47.3543 93.0077 37.0074C111.95 27.7337 134.758 21.3365 161.775 18.0306C166.671 17.3436 170.021 12.8358 169.334 7.9843C168.647 3.13282 164.137 -0.25896 159.283 0.427975C132.824 4.76425 110.317 11.7198 91.375 21.1652C80.6369 13.0078 68.3102 7.38344 54.4795 3.90584C40.52 0.385293 25.0569 -0.645361 8.09073 0.427975C3.19416 0.943177 -0.328306 5.36545 0.230075 10.2169C0.788456 15.1113 5.16981 18.6317 10.0664 18.0736C25.0997 15.7122 39.0161 15.3261 51.773 17.2581Z" fill="black"/>
<path d="M133.512 44.821C130.032 48.2557 130.032 53.9231 133.512 57.3578L174.703 92.6919C176.55 94.538 179.556 94.538 181.446 92.6919C183.293 90.8458 183.293 87.8406 181.446 85.9516L146.096 44.821C142.617 41.3434 136.991 41.3434 133.512 44.821Z" fill="black"/>
</svg>
